# This file uses centimeters as units for non-parametric coordinates.

mtllib huge tree 2.mtl
g default
v 5.161041 61.973412 -9.081894
v -36.333199 60.905342 -18.135780
v 24.085007 128.077332 -45.279633
v -49.594780 123.240440 -60.667038
v -10.353355 54.602974 -18.998795
v -1.174839 91.689262 -0.417953
v -81.008263 71.626793 -46.497711
v -62.564934 136.068542 -11.914764
v -1.105759 85.231972 -4.927155
v -10.044113 36.685257 -9.662811
v -7.197800 109.674812 -92.060364
v -21.660965 22.988228 -97.274139
v 3.249542 21.428967 -2.081024
v -3.489952 84.718094 4.350342
v 119.436035 13.715599 9.394684
v 103.353180 125.739563 18.913879
v 29.854622 46.805191 -23.332352
v -20.290596 63.233093 12.832275
v 64.531219 153.427673 -56.793884
v -26.010971 178.318390 7.090424
v -8.626309 0.174054 21.609892
v -5.317585 9.752818 11.689734
v -3.868744 0.029174 -28.464432
v -5.748127 12.716060 -19.426064
v 7.236817 -5.117078 16.088053
v 4.535533 9.736991 6.824056
v 10.123882 -0.333870 -22.039656
v 5.755707 12.698828 -11.675371
v -21.734938 0.029178 0.029592
v -12.163960 11.245712 -0.398902
v 22.219637 0.029179 -0.000000
v 12.163960 11.206636 0.398898
v -2.828337 24.779476 9.793737
v 1.556672 24.766205 -9.511234
v 4.902227 23.650461 16.895561
v 9.974719 23.536789 -2.239283
v -6.142282 25.577030 -1.221391
v 12.944923 22.789433 8.690782
v 1.398499 45.966866 4.779162
v 1.445210 32.635876 -13.962409
v 11.379675 39.649258 6.801528
v 6.844262 33.683643 -7.854048
v -3.192276 34.976105 -3.879259
v 11.944777 37.351822 -2.600242
v -5.861220 59.356369 0.691226
v -2.922826 54.549320 -12.186061
v 2.731750 61.452442 1.583102
v 2.222993 56.831802 -12.689866
v -8.452985 58.567543 -6.472733
v 5.843377 60.635162 -4.799767
v 4.809920 67.889435 0.005227
v -1.498977 70.565659 -7.532668
v 8.016252 69.733894 -3.676743
v 1.962307 71.011604 -9.690499
v -0.600904 70.816078 -2.969034
v 6.917078 73.513367 -7.739707
v 6.851029 65.940430 -5.412386
v 6.137647 66.557304 3.068778
v -3.548989 60.764862 -4.547510
v -0.943483 60.054771 -10.215350
v 3.643246 62.337357 -10.596788
v -0.153910 64.461151 2.787655
v -4.430490 6.479295 -25.296413
v -12.776134 -5.117084 -20.675768
v -18.057951 4.184272 -0.905753
v -19.303072 0.029177 -7.382186
v 2.382346 19.930452 -12.009512
v 10.295685 19.205156 -2.323117
v -3.181273 18.520658 5.804595
v -11.486894 19.246702 -3.815227
v -7.224444 19.948774 -15.567960
v 5.640951 18.503834 9.496189
v 2.645264 35.628593 10.983669
v -2.682170 30.112810 1.750979
v 14.815007 31.278656 5.919744
v 11.657084 32.460880 15.612352
v 2.333142 28.909590 -8.279649
v 9.411510 29.423767 -2.696477
v 3.169904 45.257721 -14.643171
v 5.602850 48.993488 -2.355578
v 3.764486 50.550850 5.536742
v -6.940459 52.661617 3.548118
v -4.030035 43.592598 -16.490543
v -9.789426 45.217957 -6.287057
v -15.701468 0.029180 10.601018
v 8.607511 10.471815 6.566957
v -9.174307 10.499267 5.856061
v 14.326131 0.243001 8.068542
v 9.204548 23.219948 14.922401
v -4.746713 25.178251 5.524738
v 12.053975 38.500542 1.941291
v -1.013144 40.471489 0.658808
v 4.381015 61.043797 -3.344721
v -7.318201 57.408089 -2.267309
v 7.632436 71.202568 -5.480990
v 2.070952 68.555405 -0.586901
v -2.006316 62.613014 -1.046891
v 5.595289 66.248871 -1.817558
v 8.210652 18.854494 3.244541
v -7.710717 18.883680 1.349755
v -0.099176 32.870701 8.164510
v 13.691456 31.869766 12.351165
v 4.793142 49.772171 0.712839
v -8.574897 48.939785 0.722361
v -13.954773 11.980884 -15.904337
v 16.009590 0.029177 -10.908438
v 11.354802 11.952729 -7.181915
v -2.166228 25.171618 -5.809177
v 14.358753 23.163109 3.468940
v -0.460848 33.805996 -10.080245
v 11.877114 35.517731 -5.386430
v -4.666459 55.004566 -10.790561
v 5.435003 58.733479 -11.779556
v -1.045596 70.668694 -5.251996
v 4.609131 71.397247 -8.777266
v 6.893673 64.138893 -9.588583
v -2.110271 60.409817 -8.839806
v -10.652877 19.597736 -11.006378
v 8.205659 19.567802 -9.018033
v 15.143916 30.351215 1.529439
v 0.379085 29.511200 -3.283466
v -6.518350 44.405277 -13.799045
v 4.701362 47.125603 -9.352235
v 0.068319 12.707443 -16.111843
v -1.471739 0.029182 22.771917
v -0.878365 9.744905 14.175859
v -0.516428 0.029178 -0.542425
v 6.574427 24.151495 -4.141811
v 0.850213 24.214970 13.935341
v 4.612234 33.159763 -10.234287
v 7.329051 42.808064 6.101945
v -0.828601 55.690559 -14.770562
v 0.041613 60.404404 2.026110
v -0.040211 70.222130 -10.047941
v 7.358101 68.527954 -1.068860
v 3.449882 72.199318 -4.083971
v 1.229027 61.196060 -12.310927
v 1.958094 65.509239 2.992192
v -3.335734 19.939613 -17.248390
v 1.083714 18.512247 7.042367
v 6.703505 29.166681 -3.673105
v 8.251567 34.044735 13.878885
v -2.092257 44.425159 -18.458134
v -0.298741 51.606228 6.974686
v 6.983870 76.458191 17.975431
v -0.994084 0.029180 11.114747
v -17.456408 77.853828 -28.596445
v -10.336330 -1.877742 -29.585709
v -11.563364 0.329947 -28.324762
v -16.560789 -1.877742 -27.046728
v -10.667788 -15.272045 -38.468460
v 16.218407 -16.973101 -33.117199
v -30.569498 0.029177 -1.744084
v -28.941494 4.184270 -3.268172
v -31.418781 0.029176 -6.249711
v -42.048729 -7.271282 2.303770
v -41.952091 -3.174804 1.328925
v -42.525314 -7.447067 0.979399
v 15.389064 -13.998630 -21.433218
v -48.256645 -4.653194 -4.851654
v -20.142733 0.029176 -15.993105
v -13.031906 11.627756 -6.817571
v -21.182652 -5.117082 -10.100096
v 2.664946 0.029174 -26.882183
v -2.597748 0.029177 -9.050347
v -1.795082 0.029175 -19.561722
v -3.421955 -5.117084 -24.435602
v 9.710317 -5.117080 -0.298440
v 6.822499 -5.117082 -9.991033
v 8.184223 -6.121877 9.952751
v 4.971646 -5.785635 -21.174332
v 12.547548 -4.315367 -15.238687
v 5.158478 -4.887202 -15.541451
v 19.170658 -5.117081 -5.355767
v 8.238011 -5.117081 -5.240042
v 8.642194 -5.508070 4.312455
v 18.112494 -3.935112 3.225661
v -9.332013 -5.117078 10.823504
v -12.095360 -5.117084 -17.558319
v -11.823928 -5.117082 -8.129038
v -10.965176 -5.117081 -0.260743
v -5.039310 -4.663257 21.353079
v -11.946371 -5.117082 -12.382610
v -10.331306 -5.117080 4.041315
v -18.519533 -5.117080 5.663402
v -8.456219 -5.240393 16.053038
v -12.745913 -5.592454 17.519606
v -1.199319 -5.117077 16.123495
v -10.419913 -6.386148 32.555836
v -8.546386 -8.124001 32.463615
v -10.204166 -8.969187 30.526070
v -11.857615 -9.344417 31.446098
v -17.099874 -4.460899 40.889702
v 19.990240 -13.977994 -22.013569
v 14.643283 -14.039053 -24.922556
v 18.024090 -10.808283 -25.572050
v 18.913057 -7.598852 9.920452
v 15.217230 -11.253253 11.002244
v 15.548995 -10.932611 7.692810
v 21.135334 -10.123431 7.140769
v 20.215841 -16.483021 14.601645
v 18.916883 -17.773510 15.295051
v 18.824965 -17.710356 14.067774
v 20.822941 -17.479391 13.493388
v 28.000439 -20.394274 17.555019
v 4.608571 72.053299 5.816501
v 8.057892 75.478531 3.916638
v -0.637994 75.601456 3.677348
v 7.510569 79.873520 2.297079
v 7.784231 77.676018 3.106858
v 1.910760 72.979889 5.417343
v 7.218202 73.108757 5.455339
v 3.635256 78.934387 3.799553
v -7.418543 75.807060 27.260897
v 8.666714 78.252419 18.460611
v 5.107844 78.435349 16.276649
v 8.569948 80.501434 18.205664
v 8.618332 79.376923 18.333138
v 5.905532 76.968048 17.274086
v 8.091442 76.964790 18.588270
v 6.787382 81.094704 17.493660
v -0.767217 79.366295 -18.745804
v -0.883312 75.483246 -11.418163
v 5.344034 78.017662 -13.955365
v 3.742643 76.013405 -14.337646
v -1.133097 74.965981 -13.139235
v 2.522391 78.414566 -10.867115
v -0.644835 76.033188 -9.703068
v 0.184259 74.428406 -15.027906
v 1.698472 75.290497 -14.926259
v 1.434636 79.569389 -20.162020
v -0.688767 81.250282 -16.437101
v 3.770990 82.521957 -20.171024
v -0.721027 80.297783 -17.584332
v 2.876155 80.629570 -19.898026
v 0.408729 78.634682 -20.007875
v 1.594901 84.629822 -17.650261
v -12.123764 90.461296 -51.144669
v -15.430354 78.006302 -29.897141
v -17.692415 80.027870 -26.947821
v -13.665000 80.910217 -30.542648
v -17.567026 78.933983 -27.763458
v -14.257050 79.183083 -29.888422
v -16.254772 77.083412 -29.558752
v -15.714641 83.300949 -28.274368
v 2.234925 77.018410 7.177273
v 3.908146 74.973969 8.545988
v 8.201281 78.526474 7.920272
v 8.040258 80.187477 7.451646
v 8.362303 76.865479 8.388901
v 7.654822 75.036781 9.222079
v 5.796220 74.255745 9.096241
v 5.211318 80.014542 7.846882
v -9.111811 78.610054 -23.671124
v -9.144027 79.615883 -22.673899
v -4.947005 81.716087 -25.356836
v -5.690448 79.906326 -24.893227
v -7.923022 77.859047 -24.783316
v -6.997858 78.787834 -25.029581
v -7.059869 83.965385 -22.962317
v -9.190592 80.639084 -21.692463
v -13.154202 84.075653 -37.370613
v -15.523805 83.260956 -36.540001
v -14.806832 81.772438 -37.124729
v -15.476131 84.180298 -36.578003
v -15.573093 82.306366 -36.559734
v -14.285846 82.317337 -37.251534
v -14.412772 85.896927 -36.565968
v -13.504673 83.160728 -37.385170
v 11.198291 78.835747 -5.158945
v 8.796928 83.293510 -11.138861
v 9.788012 83.559235 -7.769437
v 18.427055 79.806908 -9.129431
v 18.534641 84.084579 -13.803261
v 17.350655 84.180550 -9.772698
v 28.596153 81.582764 -11.777946
v 29.745790 83.851631 -14.581042
v 27.528618 86.339088 -10.764030
v 43.601620 75.844093 -10.927237
v 6.335102 72.571465 -10.039303
v 18.487257 79.592194 -11.744742
v 29.160196 80.087585 -13.153219
v 9.719604 78.972359 -8.841196
v -5.791647 81.073166 7.623807
v -4.417174 82.804352 8.170133
v -2.386758 81.465302 10.568530
v -11.517601 78.129913 14.893784
v -10.404598 81.444458 14.335580
v -8.627121 81.000603 15.784082
v -13.262526 77.099800 25.274359
v -4.132087 80.121033 9.272655
v -9.944324 78.140999 15.378370
v 1.093070 74.903809 9.160136
v -4.939514 80.490532 -21.208464
v -0.588008 83.621384 -22.763931
v -3.757147 79.749222 -22.395596
v -2.732484 85.799957 -20.306288
v -4.939679 82.447037 -19.064781
v -4.932528 81.459183 -20.129116
v -1.407146 81.770302 -22.395626
v -2.781611 80.680977 -22.595800
v 5.602291 89.264282 -22.661816
v 4.246258 90.554298 -21.194571
v 3.061270 89.990654 -24.341814
v 1.726919 91.323174 -22.911448
v 7.819382 91.166283 -26.802109
v 6.372231 92.498520 -25.724400
v 6.172891 92.195152 -29.156355
v 4.760254 93.564102 -28.104822
v 14.178443 93.626419 -27.159678
v -13.211782 62.722443 3.882911
v -15.481317 67.092224 -6.137471
v -13.160686 69.198105 0.620249
v -15.566150 53.379284 -5.320698
v -14.753352 66.508842 -2.113044
v -14.739964 58.265972 3.058105
v -20.451748 73.346191 3.130836
v -17.387638 70.388397 -6.193734
v -15.522837 73.104820 0.205337
v -20.925760 69.265663 -3.708800
v -16.629595 73.411568 -4.227769
v -22.107336 72.075981 -0.320039
v -16.273415 60.362583 -7.454323
v -6.760270 52.241905 -8.412206
v -20.523949 76.301918 -3.358814
v -12.810910 66.727699 3.780438
v -18.968668 69.886696 -5.083328
v -2.738945 56.228970 4.018206
v -30.587782 75.746216 -27.456217
v -33.894032 74.981499 -24.551455
v -29.444551 78.810410 -25.758293
v -34.533146 78.030838 -21.224173
v -33.045235 81.985947 -24.650970
v -32.065197 75.404488 -26.158207
v -21.545414 82.621651 2.296966
v -17.327555 82.463989 -0.072892
v -18.230396 83.263680 -4.490673
v -22.280991 81.778534 -1.699483
v -22.172291 82.915367 -3.821843
v -29.471230 76.172867 -8.903250
v -28.290585 72.963715 -12.583226
v -26.333490 73.584747 -13.957754
v -24.752459 74.086441 -15.068160
v -23.994415 77.109619 -13.102194
v -27.853350 80.009567 -12.404963
v -33.189980 77.613441 -13.459949
v -30.015902 75.433777 -18.394966
v -31.572100 81.450150 -16.961666
v -31.972992 74.812744 -17.020439
v -28.434870 75.935471 -19.505371
v -27.676825 78.958641 -17.539410
v -28.998411 87.094635 -5.025892
v -28.189720 91.716286 -6.239054
v -31.974709 87.851830 -8.243919
v -31.166002 92.473480 -8.537746
v -42.665989 89.353333 -0.344091
v -42.345978 70.651711 -27.837193
v -46.453690 69.051300 -25.628370
v -44.736023 68.937141 -28.203403
v -44.879112 71.069283 -23.874079
v -44.318661 73.156197 -26.536364
v -45.503567 68.988144 -27.052734
v -60.905628 71.667557 -20.549311
v -14.971250 93.294998 6.788188
v -10.007674 92.842773 4.790001
v -11.869287 93.094666 1.957331
v -16.692093 92.756851 4.135318
v -14.724214 93.115089 6.551602
v -16.617178 93.112061 2.785630
v -6.211424 100.628502 -3.081121
v -4.184133 97.992393 -5.727007
v -5.456408 98.311340 -7.793251
v -7.557626 99.298706 -4.862893
v -5.683258 99.731667 -3.979222
v -7.210328 99.343781 -6.712781
v -1.681310 112.156479 -3.001538
v 7.271225 68.479393 -1.003524
v -40.305634 46.875778 -8.163330
v 20.845657 63.303680 0.943909
v -88.493614 153.498260 -8.408386
v 20.933777 178.388977 9.048431
v -5.288597 85.302574 0.268951
v -2.193848 36.755859 9.899277
v -61.748611 109.745415 66.914078
v -55.031555 23.058830 80.743301
v 6.503052 26.474697 -2.441132
v -17.496246 85.622742 -6.664749
v 5.314087 14.055592 113.898224
v -35.652191 119.330460 102.167526
v -3.002470 46.151947 33.965851
v -5.183043 57.749298 -45.309280
v 115.551804 101.611328 44.770950
v 107.823730 118.699249 -95.701050
v 4.276855 85.231972 2.684769
v 13.933685 36.685257 -0.326279
v 70.429550 109.674812 59.720970
v 84.316574 22.988228 53.124161
v -39.052002 59.074085 -27.639557
v -41.423409 84.903351 -27.633881
v -82.670967 47.444832 -13.049644
v -85.042152 93.433060 -13.043892
v -15.996979 51.556084 8.270981
v 1.420494 88.531227 -3.320206
v -91.010788 69.907585 -0.346954
v -57.526482 134.699844 -19.572998
v -5.812607 53.843060 -5.378189
v 0.255905 95.523117 0.174416
v -66.873367 43.801647 41.620430
v -53.311691 117.480240 50.362457
v 9.145752 15.880951 16.385010
v -5.997421 72.556023 -9.128067
v 43.768478 51.668571 122.267059
v 17.091202 150.383881 72.847870
v -3.765884 21.428967 -0.841583
v 5.546349 84.718094 -0.585815
v -77.439880 13.715599 -91.412781
v -59.355530 125.739563 -86.697937
v -18.946060 15.951546 5.256546
v 6.434631 72.626617 -10.107437
v -124.523666 51.739166 40.796738
v -75.337875 150.454483 13.691650
v 8.857002 65.066971 17.363632
v 3.314377 89.350754 10.128189
v 23.803055 73.547462 61.583717
v 14.004913 116.106476 46.980087
v -4.458969 46.805191 37.627304
v 5.178558 63.233093 -23.442642
v -5.122192 153.427673 85.811348
v 13.283569 178.318390 -23.460434
v 5.192261 15.880951 -18.032005
v -2.257172 72.556023 10.686234
v 55.983856 51.668571 -117.178139
v 39.684204 150.383881 -63.435684
v 9.938187 39.629059 16.461159
v 10.454460 73.842117 -24.975842
v 64.758232 89.805145 63.692589
v 64.337868 147.799042 -11.576027
vt 1.000000 1.000000
vt 0.000000 1.000000
vt 1.000000 0.000000
vt 0.000000 0.000000
vt 1.000000 1.000000
vt 0.000000 1.000000
vt 0.000000 0.000000
vt 1.000000 0.000000
vt 1.000000 1.000000
vt 0.000000 1.000000
vt 0.000000 0.000000
vt 1.000000 0.000000
vt 1.000000 1.000000
vt 0.000000 1.000000
vt 0.000000 0.000000
vt 1.000000 0.000000
vt 1.000000 1.000000
vt 0.000000 1.000000
vt 0.000000 0.000000
vt 1.000000 0.000000
vt 1.000000 1.000000
vt 0.000000 1.000000
vt 0.000000 0.000000
vt 1.000000 0.000000
vt 1.000000 1.000000
vt 0.000000 1.000000
vt 0.000000 0.000000
vt 1.000000 0.000000
vt 1.000000 1.000000
vt 0.000000 1.000000
vt 0.000000 0.000000
vt 1.000000 0.000000
vt 1.000000 1.000000
vt 0.000000 1.000000
vt 0.000000 0.000000
vt 1.000000 0.000000
vt 1.000000 1.000000
vt 0.000000 1.000000
vt 0.000000 0.000000
vt 1.000000 0.000000
vt 1.000000 1.000000
vt 0.000000 1.000000
vt 0.000000 0.000000
vt 1.000000 0.000000
vt 1.000000 1.000000
vt 0.000000 1.000000
vt 0.000000 0.000000
vt 1.000000 0.000000
vt 1.000000 1.000000
vt 0.000000 1.000000
vt 0.000000 0.000000
vt 1.000000 0.000000
vt 1.000000 1.000000
vt 0.000000 1.000000
vt 0.000000 0.000000
vt 1.000000 0.000000
vt 1.000000 1.000000
vt 0.000000 1.000000
vt 0.000000 0.000000
vt 1.000000 0.000000
vt 1.000000 1.000000
vt 0.000000 1.000000
vt 0.000000 0.000000
vt 1.000000 0.000000
vt 1.000000 1.000000
vt 0.000000 1.000000
vt 0.000000 0.000000
vt 1.000000 0.000000
vt 1.000000 1.000000
vt 0.000000 1.000000
vt 0.000000 0.000000
vt 1.000000 0.000000
vt 1.000000 1.000000
vt 0.000000 1.000000
vt 0.000000 0.000000
vt 1.000000 0.000000
vt 1.000000 1.000000
vt 0.000000 1.000000
vt 0.000000 0.000000
vt 1.000000 0.000000
vt 0.471327 0.767439
vt 0.464308 0.770566
vt 0.468767 0.767439
vt 0.465536 0.770566
vt 0.444893 0.765712
vt 0.454847 0.761025
vt 0.443174 0.770566
vt 0.479426 0.762707
vt 0.479705 0.763260
vt 0.481054 0.770405
vt 0.489745 0.774438
vt 0.487673 0.763254
vt 0.484978 0.763249
vt 0.495730 0.770457
vt 0.483096 0.775195
vt 0.484355 0.770566
vt 0.489784 0.774438
vt 0.473772 0.756377
vt 0.478600 0.756651
vt 0.478297 0.751641
vt 0.482923 0.751941
vt 0.459293 0.755590
vt 0.469882 0.752876
vt 0.462535 0.755863
vt 0.476069 0.753157
vt 0.441459 0.770566
vt 0.445826 0.774438
vt 0.449901 0.774438
vt 0.472309 0.770566
vt 0.460487 0.770566
vt 0.472741 0.762155
vt 0.472341 0.770566
vt 0.478447 0.774438
vt 0.485695 0.746605
vt 0.478725 0.747050
vt 0.474413 0.741615
vt 0.469491 0.742480
vt 0.481158 0.745852
vt 0.484213 0.743777
vt 0.473023 0.740132
vt 0.477489 0.735997
vt 0.460380 0.755840
vt 0.468174 0.756104
vt 0.466013 0.751646
vt 0.470985 0.751341
vt 0.479942 0.756657
vt 0.482601 0.756663
vt 0.487412 0.752365
vt 0.490620 0.752790
vt 0.455437 0.755576
vt 0.462001 0.751951
vt 0.453615 0.755583
vt 0.467820 0.752413
vt 0.469791 0.756135
vt 0.481728 0.753438
vt 0.475826 0.756399
vt 0.488482 0.753114
vt 0.479868 0.731753
vt 0.478310 0.732547
vt 0.474505 0.725132
vt 0.474025 0.724344
vt 0.456439 0.736530
vt 0.458556 0.727821
vt 0.462173 0.735125
vt 0.459542 0.726390
vt 0.474207 0.747927
vt 0.468105 0.744268
vt 0.468751 0.748380
vt 0.461384 0.745148
vt 0.473967 0.747748
vt 0.469387 0.748446
vt 0.466471 0.743860
vt 0.463797 0.745240
vt 0.489230 0.746160
vt 0.479681 0.740751
vt 0.487351 0.744968
vt 0.478922 0.738374
vt 0.468328 0.748639
vt 0.463336 0.748833
vt 0.461217 0.745634
vt 0.457177 0.746029
vt 0.462729 0.725128
vt 0.467381 0.724861
vt 0.466617 0.717408
vt 0.469091 0.717297
vt 0.470339 0.720734
vt 0.466443 0.720966
vt 0.466369 0.717007
vt 0.463921 0.715268
vt 0.454437 0.737784
vt 0.459102 0.729538
vt 0.452304 0.737157
vt 0.456301 0.728680
vt 0.473092 0.733760
vt 0.476155 0.730959
vt 0.475623 0.726742
vt 0.476517 0.723388
vt 0.473082 0.733133
vt 0.469756 0.733719
vt 0.468684 0.724651
vt 0.467107 0.724959
vt 0.463192 0.731275
vt 0.465294 0.726515
vt 0.460614 0.729196
vt 0.467883 0.716256
vt 0.474799 0.710482
vt 0.476427 0.711188
vt 0.456132 0.713930
vt 0.450458 0.710710
vt 0.456770 0.713386
vt 0.450744 0.709913
vt 0.460824 0.723678
vt 0.461807 0.717150
vt 0.461917 0.722322
vt 0.462796 0.716860
vt 0.471221 0.719056
vt 0.468324 0.718112
vt 0.471151 0.719019
vt 0.458967 0.724537
vt 0.461238 0.725395
vt 0.461419 0.717744
vt 0.464145 0.717486
vt 0.471175 0.723470
vt 0.475330 0.722080
vt 0.471673 0.718999
vt 0.472315 0.719500
vt 0.469852 0.727387
vt 0.473058 0.725921
vt 0.475552 0.721291
vt 0.475635 0.720502
vt 0.441611 0.770339
vt 0.442996 0.772001
vt 0.464920 0.761838
vt 0.461363 0.774438
vt 0.451255 0.761019
vt 0.464525 0.761593
vt 0.459655 0.761032
vt 0.478656 0.762687
vt 0.457354 0.737172
vt 0.465495 0.736560
vt 0.471877 0.762125
vt 0.475676 0.712135
vt 0.470019 0.720539
vt 0.465657 0.720100
vt 0.483798 0.770566
vt 0.476983 0.774733
vt 0.455072 0.761572
vt 0.458069 0.714175
vt 0.451992 0.710863
vt 0.456022 0.714579
vt 0.450625 0.711414
vt 0.472026 0.774438
vt 0.476295 0.713696
vt 0.461793 0.713371
vt 0.460531 0.711579
vt 0.454495 0.709445
vt 0.453180 0.706902
vt 0.478222 0.715572
vt 0.478613 0.716366
vt 0.476664 0.728274
vt 0.484040 0.774438
vt 0.491297 0.774796
vt 0.489707 0.774531
vt 0.496989 0.770566
vt 0.430617 0.782080
vt 0.440244 0.772001
vt 0.455465 0.774265
vt 0.449360 0.774942
vt 0.449080 0.781122
vt 0.445298 0.781152
vt 0.473749 0.772977
vt 0.473371 0.776192
vt 0.470419 0.770566
vt 0.467051 0.774089
vt 0.474806 0.776059
vt 0.448423 0.770839
vt 0.455793 0.773835
vt 0.444594 0.778721
vt 0.448451 0.781106
vt 0.454976 0.770566
vt 0.453279 0.774438
vt 0.451108 0.770566
vt 0.458889 0.774438
vt 0.462500 0.770566
vt 0.461481 0.774438
vt 0.466630 0.774438
vt 0.471986 0.774438
vt 0.466505 0.774438
vt 0.480646 0.778815
vt 0.484233 0.779056
vt 0.475805 0.773549
vt 0.476689 0.774438
vt 0.471721 0.770566
vt 0.495451 0.774097
vt 0.463499 0.774438
vt 0.506390 0.777620
vt 0.507593 0.775393
vt 0.505393 0.777337
vt 0.507493 0.776701
vt 0.516625 0.773945
vt 0.436417 0.783360
vt 0.483061 0.776306
vt 0.488134 0.782991
vt 0.480048 0.778206
vt 0.486933 0.783741
vt 0.488886 0.783963
vt 0.491335 0.785935
vt 0.487556 0.783915
vt 0.481401 0.712745
vt 0.492317 0.711701
vt 0.482304 0.714121
vt 0.492455 0.712670
vt 0.480893 0.711495
vt 0.492178 0.710855
vt 0.480088 0.712630
vt 0.481571 0.714168
vt 0.489950 0.711564
vt 0.491031 0.712668
vt 0.480385 0.710245
vt 0.492040 0.710009
vt 0.478180 0.715669
vt 0.476554 0.713789
vt 0.501854 0.713542
vt 0.491269 0.709563
vt 0.491791 0.713052
vt 0.482168 0.714709
vt 0.480814 0.710375
vt 0.459934 0.713785
vt 0.445330 0.710457
vt 0.445182 0.711299
vt 0.439916 0.711001
vt 0.439907 0.711887
vt 0.445449 0.711998
vt 0.446654 0.711432
vt 0.440273 0.712581
vt 0.441316 0.712001
vt 0.447735 0.710675
vt 0.442219 0.711189
vt 0.444827 0.709095
vt 0.439207 0.709701
vt 0.457184 0.711878
vt 0.450448 0.708488
vt 0.453251 0.710162
vt 0.432707 0.707932
vt 0.432686 0.708651
vt 0.431791 0.708008
vt 0.431807 0.707319
vt 0.443103 0.710365
vt 0.432666 0.707241
vt 0.441665 0.707902
vt 0.432679 0.705949
vt 0.447423 0.707402
vt 0.448799 0.709905
vt 0.432073 0.709053
vt 0.431936 0.708642
vt 0.461428 0.715976
vt 0.482237 0.714221
vt 0.451647 0.708545
vt 0.450493 0.709288
vt 0.450301 0.706022
vt 0.447820 0.709874
vt 0.448037 0.710575
vt 0.447638 0.707661
vt 0.448037 0.709054
vt 0.449323 0.710017
vt 0.416879 0.702514
vt 0.466718 0.711262
vt 0.463889 0.707708
vt 0.461717 0.707240
vt 0.462415 0.710532
vt 0.462727 0.711160
vt 0.460237 0.707908
vt 0.460643 0.705616
vt 0.459544 0.709195
vt 0.459580 0.710693
vt 0.457349 0.707313
vt 0.460466 0.713514
vt 0.458054 0.710320
vt 0.456506 0.707488
vt 0.481164 0.708276
vt 0.487846 0.709299
vt 0.483763 0.709284
vt 0.489416 0.709633
vt 0.480572 0.709579
vt 0.482359 0.710295
vt 0.499701 0.712569
vt 0.488451 0.711794
vt 0.488976 0.711785
vt 0.447478 0.701865
vt 0.445927 0.702868
vt 0.449338 0.702444
vt 0.444429 0.700981
vt 0.441849 0.700179
vt 0.447748 0.703415
vt 0.440709 0.701209
vt 0.442873 0.700132
vt 0.443261 0.701984
vt 0.466543 0.730419
vt 0.468290 0.718464
vt 0.471962 0.716349
vt 0.465596 0.717619
vt 0.467727 0.715344
vt 0.464230 0.725164
vt 0.476406 0.720374
vt 0.472981 0.718515
vt 0.452373 0.713823
vt 0.443959 0.713845
vt 0.451169 0.713445
vt 0.442552 0.713587
vt 0.475702 0.715393
vt 0.466800 0.717997
vt 0.472532 0.715575
vt 0.445700 0.714163
vt 0.442989 0.718673
vt 0.444533 0.718625
vt 0.457721 0.712182
vt 0.449306 0.711868
vt 0.453862 0.714290
vt 0.468669 0.713169
vt 0.467442 0.707930
vt 0.468167 0.708193
vt 0.445592 0.708892
vt 0.443549 0.715536
vt 0.446434 0.717107
vt 0.453300 0.711170
vt 0.444392 0.711282
vt 0.453926 0.709295
vt 0.474799 0.708413
vt 0.479410 0.700517
vt 0.479666 0.700382
vt 0.470467 0.709048
vt 0.475328 0.700519
vt 0.476791 0.700787
vt 0.472230 0.708532
vt 0.458109 0.712561
vt 0.458865 0.710379
vt 0.458671 0.715681
vt 0.457182 0.715214
vt 0.462660 0.713266
vt 0.455978 0.714836
vt 0.463374 0.704478
vt 0.463056 0.701000
vt 0.465547 0.701570
vt 0.471936 0.703348
vt 0.466862 0.705047
vt 0.450038 0.716657
vt 0.442139 0.717421
vt 0.441742 0.718711
vt 0.477500 0.700722
vt 0.474430 0.700532
vt 0.466102 0.696847
vt 0.463863 0.696607
vt 0.467996 0.695538
vt 0.467039 0.695864
vt 0.468970 0.694863
vt 0.469056 0.686188
vt 0.465034 0.695830
vn 0.202882 -0.518220 -0.830835
vn 0.202882 -0.518220 -0.830835
vn 0.202882 -0.518220 -0.830835
vn 0.202882 -0.518220 -0.830835
vn -0.406630 -0.334536 0.850140
vn -0.406630 -0.334536 0.850140
vn -0.406630 -0.334536 0.850140
vn -0.406630 -0.334536 0.850140
vn 0.980769 -0.161674 -0.109335
vn 0.980769 -0.161674 -0.109335
vn 0.980769 -0.161674 -0.109335
vn 0.980769 -0.161674 -0.109335
vn 0.100147 0.103076 -0.989619
vn 0.100147 0.103076 -0.989619
vn 0.100147 0.103076 -0.989619
vn 0.100147 0.103076 -0.989619
vn -0.590925 -0.065007 -0.804103
vn -0.590925 -0.065007 -0.804103
vn -0.590925 -0.065007 -0.804103
vn -0.590925 -0.065007 -0.804103
vn 0.035698 0.743731 -0.667525
vn 0.035698 0.743731 -0.667525
vn 0.035698 0.743731 -0.667525
vn 0.035698 0.743731 -0.667525
vn 0.432559 0.633547 -0.641492
vn 0.432559 0.633547 -0.641492
vn 0.432559 0.633547 -0.641492
vn 0.348549 0.466036 0.813219
vn 0.348549 0.466036 0.813219
vn 0.348549 0.466036 0.813219
vn 0.348549 0.466036 0.813219
vn -0.332193 0.731462 0.595492
vn -0.332193 0.731462 0.595492
vn -0.332193 0.731462 0.595492
vn -0.329386 -0.873424 -0.358659
vn -0.329386 -0.873424 -0.358659
vn -0.329386 -0.873424 -0.358659
vn -0.800101 -0.163876 0.577047
vn -0.800101 -0.163876 0.577047
vn -0.800101 -0.163876 0.577047
vn -0.800101 -0.163876 0.577047
vn 0.501702 0.683013 -0.530837
vn 0.501702 0.683013 -0.530837
vn 0.501702 0.683013 -0.530837
vn 0.501702 0.683013 -0.530837
vn -0.297100 -0.604459 -0.739162
vn -0.297100 -0.604459 -0.739162
vn -0.297100 -0.604459 -0.739162
vn 0.678780 0.624448 -0.386422
vn 0.678780 0.624448 -0.386422
vn 0.678780 0.624448 -0.386422
vn -0.421022 0.537114 0.730923
vn -0.421022 0.537114 0.730923
vn 0.928633 0.370002 0.027178
vn 0.928633 0.370002 0.027178
vn 0.928633 0.370002 0.027178
vn 0.928633 0.370002 0.027178
vn -0.887193 0.207932 0.411890
vn -0.887193 0.207932 0.411890
vn -0.887193 0.207932 0.411890
vn -0.887193 0.207932 0.411890
vn -0.556669 0.797970 -0.231006
vn -0.556669 0.797970 -0.231006
vn -0.556669 0.797970 -0.231006
vn -0.556669 0.797970 -0.231006
vn -0.389247 -0.746248 0.540000
vn -0.389247 -0.746248 0.540000
vn -0.389247 -0.746248 0.540000
vn -0.389247 -0.746248 0.540000
vn 0.313283 0.704059 -0.637303
vn 0.313283 0.704059 -0.637303
vn 0.313283 0.704059 -0.637303
vn 0.313283 0.704059 -0.637303
vn 0.452539 -0.861772 0.229255
vn 0.452539 -0.861772 0.229255
vn 0.452539 -0.861772 0.229255
vn 0.452539 -0.861772 0.229255
vn 0.245568 0.406344 0.880103
vn 0.245568 0.406344 0.880103
vn 0.245568 0.406344 0.880103
vn 0.245568 0.406344 0.880103
vn 0.795748 -0.005063 -0.605607
vn 0.795748 -0.005063 -0.605607
vn 0.795748 -0.005063 -0.605607
vn 0.795748 -0.005063 -0.605607
vn -0.778196 -0.542964 -0.315596
vn -0.778196 -0.542964 -0.315596
vn -0.778196 -0.542964 -0.315596
vn -0.778196 -0.542964 -0.315596
vn 0.544276 -0.513157 -0.663651
vn 0.544276 -0.513157 -0.663651
vn 0.544276 -0.513157 -0.663651
vn 0.544276 -0.513157 -0.663651
vn 0.234072 0.709171 0.665046
vn 0.234072 0.709171 0.665046
vn 0.234072 0.709171 0.665046
vn 0.234072 0.709171 0.665046
vn 0.631993 -0.576885 -0.517482
vn 0.631993 -0.576885 -0.517482
vn 0.631993 -0.576885 -0.517482
vn 0.631993 -0.576885 -0.517482
vn -0.959282 0.230907 -0.162665
vn -0.959282 0.230907 -0.162665
vn -0.959282 0.230907 -0.162665
vn -0.959282 0.230907 -0.162665
vn 0.988391 -0.146235 0.041222
vn 0.988391 -0.146235 0.041222
vn 0.988391 -0.146235 0.041222
vn 0.988391 -0.146235 0.041222
vn -0.775508 0.285291 -0.563201
vn -0.775508 0.285291 -0.563201
vn -0.775508 0.285291 -0.563201
vn -0.775508 0.285291 -0.563201
vn -0.274101 -0.301620 0.913178
vn -0.274101 -0.301620 0.913178
vn -0.274101 -0.301620 0.913178
vn -0.274101 -0.301620 0.913178
vn 0.899365 0.125566 0.418779
vn 0.899365 0.125566 0.418779
vn 0.899365 0.125566 0.418779
vn 0.899365 0.125566 0.418779
vn -0.751321 0.001289 -0.659935
vn -0.751321 0.001289 -0.659935
vn -0.751321 0.001289 -0.659935
vn -0.546887 0.687105 -0.478332
vn -0.546887 0.687105 -0.478332
vn -0.546887 0.687105 -0.478332
vn 0.477741 -0.652813 -0.587877
vn 0.477741 -0.652813 -0.587877
vn 0.477741 -0.652813 -0.587877
vn 0.477741 -0.652813 -0.587877
vn 0.249687 0.165008 -0.954164
vn 0.249687 0.165008 -0.954164
vn 0.249687 0.165008 -0.954164
vn 0.249687 0.165008 -0.954164
vn 0.235499 -0.903415 -0.358303
vn 0.235499 -0.903415 -0.358303
vn 0.235499 -0.903415 -0.358303
vn -0.789784 0.080178 -0.608122
vn -0.789784 0.080178 -0.608122
vn -0.789784 0.080178 -0.608122
vn -0.789784 0.080178 -0.608122
vn -0.592559 0.679094 0.433250
vn -0.592559 0.679094 0.433250
vn -0.592559 0.679094 0.433250
vn -0.592559 0.679094 0.433250
vn -0.665980 0.740588 -0.089444
vn -0.665980 0.740588 -0.089444
vn 0.142000 -0.300513 0.943148
vn 0.142000 -0.300513 0.943148
vn -0.554767 0.716767 0.422467
vn -0.554767 0.716767 0.422467
vn -0.831650 0.464475 -0.304336
vn -0.831650 0.464475 -0.304336
vn 0.161780 0.234917 -0.958458
vn 0.552256 0.122068 -0.824690
vn 0.552256 0.122068 -0.824690
vn -0.649548 0.489033 0.582181
vn -0.787885 -0.556144 -0.264463
vn -0.787885 -0.556144 -0.264463
vn -0.791870 0.346575 0.502820
vn 0.983400 0.128626 -0.127984
vn 0.771861 0.634511 -0.040333
vn 0.771861 0.634511 -0.040333
vn -0.622735 0.610182 0.489775
vn -0.563351 -0.815204 -0.134457
vn -0.530833 0.477931 -0.699856
vn -0.774767 -0.468744 -0.424282
vn -0.774767 -0.468744 -0.424282
vn -0.774767 -0.468744 -0.424282
vn -0.774767 -0.468744 -0.424282
vn -0.386054 -0.780137 -0.492289
vn -0.460738 0.697742 -0.548523
vn -0.445363 0.667593 0.596633
vn -0.445363 0.667593 0.596633
vn -0.445363 0.667593 0.596633
vn -0.445363 0.667593 0.596633
vn 0.394410 -0.744488 0.538682
vn 0.394410 -0.744488 0.538682
vn -0.117519 0.490284 0.863603
vn -0.420870 -0.864139 -0.275922
vn -0.420870 -0.864139 -0.275922
vn -0.420870 -0.864139 -0.275922
vn 0.705714 0.455199 0.542919
vn -0.410436 0.480375 -0.775101
vn 0.106701 -0.943476 -0.313797
vn -0.610605 -0.778991 0.142599
vn -0.610605 -0.778991 0.142599
vn -0.610605 -0.778991 0.142599
vn -0.610605 -0.778991 0.142599
vn -0.604917 0.472356 -0.641058
vn -0.604917 0.472356 -0.641058
vn -0.189229 0.387784 0.902117
vn 0.703928 -0.036416 -0.709337
vn 0.186544 0.248837 0.950411
vn 0.808765 0.584952 0.061082
vn 0.808765 0.584952 0.061082
vn 0.808765 0.584952 0.061082
vn 0.808765 0.584952 0.061082
vn -0.405275 0.219705 -0.887402
vn 0.345377 -0.831256 0.435578
vn 0.345377 -0.831256 0.435578
vn -0.343506 -0.840732 -0.418537
vn -0.464145 -0.874897 0.138288
vn -0.464145 -0.874897 0.138288
vn -0.464145 -0.874897 0.138288
vn 0.302241 -0.767462 0.565378
vn 0.302241 -0.767462 0.565378
vn -0.570564 -0.810093 -0.134930
vn -0.570564 -0.810093 -0.134930
vn 0.332848 -0.778187 -0.532576
vn 0.471344 -0.881738 0.019314
vn 0.471344 -0.881738 0.019314
vn 0.345464 -0.878531 0.329906
vn -0.188532 -0.403907 0.895162
vn -0.872949 0.461042 0.159375
vn -0.872949 0.461042 0.159375
vn 0.000726 -0.916817 0.399308
vn 0.000726 -0.916817 0.399308
vn 0.000726 -0.916817 0.399308
vn -0.679864 0.639160 -0.359527
vn 0.879915 0.302560 0.366342
vn 0.879915 0.302560 0.366342
vn 0.879915 0.302560 0.366342
vn 0.879915 0.302560 0.366342
vn -0.061905 0.520050 0.851889
vn -0.061905 0.520050 0.851889
vn -0.018024 -0.671151 -0.741102
vn 0.927392 -0.373022 0.028261
vn 0.927392 -0.373022 0.028261
vn 0.927392 -0.373022 0.028261
vn 0.927392 -0.373022 0.028261
vn 0.996929 0.065892 -0.042309
vn 0.996929 0.065892 -0.042309
vn -0.863130 -0.397223 0.311802
vn -0.863130 -0.397223 0.311802
vn -0.863130 -0.397223 0.311802
vn -0.863130 -0.397223 0.311802
vn 0.996748 0.064631 -0.048137
vn 0.996748 0.064631 -0.048137
vn -0.773208 -0.518357 0.365315
vn 0.989418 0.109859 -0.094780
vn -0.415839 -0.654973 -0.630942
vn -0.589687 0.613038 -0.525789
vn 0.244816 -0.916825 0.315432
vn -0.466608 -0.837613 0.284044
vn 0.095791 0.992364 -0.077702
vn -0.964610 0.226900 0.134326
vn 0.474578 -0.465718 -0.746915
vn 0.474578 -0.465718 -0.746915
vn 0.474578 -0.465718 -0.746915
vn 0.474578 -0.465718 -0.746915
vn -0.176282 -0.879556 0.441934
vn -0.176282 -0.879556 0.441934
vn -0.176282 -0.879556 0.441934
vn -0.176282 -0.879556 0.441934
vn -0.357893 -0.629564 0.689610
vn -0.357893 -0.629564 0.689610
vn 0.487020 -0.425036 -0.762991
vn 0.487020 -0.425036 -0.762991
vn 0.709440 0.604614 0.362127
vn 0.709440 0.604614 0.362127
vn -0.992485 0.113927 0.044648
vn -0.978114 0.054653 -0.200765
vn -0.978114 0.054653 -0.200765
vn 0.930120 -0.354785 -0.094895
vn 0.930120 -0.354785 -0.094895
vn -0.977479 0.042140 -0.206785
vn -0.977479 0.042140 -0.206785
vn -0.849794 0.526184 0.031314
vn -0.849794 0.526184 0.031314
vn 0.265645 0.791470 -0.550462
vn -0.464492 0.559305 0.686605
vn -0.710630 -0.529007 -0.463850
vn 0.678826 -0.674675 -0.289844
vn 0.630606 -0.374163 -0.679954
vn 0.927213 -0.209671 0.310346
vn -0.118309 -0.709674 0.694525
vn -0.118309 -0.709674 0.694525
vn -0.589970 0.590298 0.550893
vn 0.569104 -0.689054 -0.448693
vn 0.569104 -0.689054 -0.448693
vn 0.060285 0.763093 -0.643470
vn 0.588992 -0.409702 -0.696587
vn -0.088747 -0.722377 0.685780
vn 0.930118 -0.354788 -0.094897
vn -0.548020 0.159045 0.821205
vn -0.548020 0.159045 0.821205
vn 0.307437 0.393861 0.866231
vn 0.307437 0.393861 0.866231
vn 0.847003 -0.480650 -0.227073
vn -0.601288 0.759449 -0.248376
vn 0.175844 0.001328 0.984417
vn 0.175844 0.001328 0.984417
vn 0.095104 -0.995426 -0.009075
vn -0.094943 0.994172 -0.051069
vn -0.145226 -0.237348 0.960508
vn 0.177436 -0.894237 0.410922
vn -0.112885 0.928219 -0.354496
vn 0.138594 0.943752 0.300207
vn 0.138594 0.943752 0.300207
vn 0.138594 0.943752 0.300207
vn 0.138594 0.943752 0.300207
vn -0.262237 0.407910 -0.874552
vn -0.678273 -0.717977 0.156381
vn -0.056888 0.932883 0.355660
vn -0.755529 0.371196 -0.539805
vn -0.028555 -0.929830 -0.366880
vn -0.646607 0.180153 -0.741245
vn -0.646607 0.180153 -0.741245
vn 0.010297 0.916480 0.399947
vn 0.010297 0.916480 0.399947
vn 0.010297 0.916480 0.399947
vn 0.763517 0.036980 0.644729
vn 0.071357 0.652877 -0.754095
vn 0.071357 0.652877 -0.754095
vn 0.783101 0.319055 0.533813
vn -0.901829 -0.373583 0.217120
vn -0.901829 -0.373583 0.217120
vn -0.901829 -0.373583 0.217120
vn 0.905148 0.264937 -0.332440
vn 0.905148 0.264937 -0.332440
vn 0.176804 0.249664 -0.952055
vn -0.031215 -0.029529 0.999076
vn 0.578230 0.452767 -0.678714
vn 0.230200 -0.971957 -0.048044
vn 0.230200 -0.971957 -0.048044
vn 0.230200 -0.971957 -0.048044
vn 0.230200 -0.971957 -0.048044
vn -0.604580 -0.232665 0.761807
vn -0.214957 0.098282 -0.971666
vn 0.876776 0.247259 -0.412464
vn 0.397992 -0.879639 0.260456
vn 0.397992 -0.879639 0.260456
vn 0.397992 -0.879639 0.260456
vn -0.866126 -0.471177 0.166786
vn -0.866126 -0.471177 0.166786
vn -0.866126 -0.471177 0.166786
vn -0.218644 -0.085999 -0.972008
vn -0.218644 -0.085999 -0.972008
vn -0.218644 -0.085999 -0.972008
vn -0.583837 0.665940 0.464390
vn -0.583837 0.665940 0.464390
vn -0.583837 0.665940 0.464390
vn 0.959813 -0.161738 -0.229348
vn 0.959813 -0.161738 -0.229348
vn -0.845229 0.501375 0.184963
vn 0.345932 -0.536866 0.769484
vn 0.345932 -0.536866 0.769484
vn 0.345932 -0.536866 0.769484
vn -0.906414 0.403348 0.125396
vn -0.906414 0.403348 0.125396
vn -0.906414 0.403348 0.125396
vn 0.501049 0.129002 0.855750
vn 0.574638 0.806722 -0.137804
vn 0.574638 0.806722 -0.137804
vn 0.014309 -0.918696 -0.394705
vn 0.014309 -0.918696 -0.394705
vn -0.398921 0.667997 0.628205
vn 0.792518 0.180163 -0.582629
vn -0.963410 0.192870 -0.186122
vn -0.963410 0.192870 -0.186122
vn -0.017954 0.942505 0.333709
vn -0.017954 0.942505 0.333709
vn -0.769714 -0.199234 0.606504
vn -0.210239 -0.972815 -0.097109
vn -0.074712 0.326212 -0.942339
vn 0.403767 -0.875259 0.266259
vn 0.289577 -0.911694 -0.291477
vn 0.289577 -0.911694 -0.291477
vn 0.289577 -0.911694 -0.291477
vn 0.289577 -0.911694 -0.291477
vn 0.542124 0.509903 0.667908
vn -0.855041 0.333260 0.397295
vn -0.855041 0.333260 0.397295
vn -0.855041 0.333260 0.397295
vn -0.304543 -0.687538 -0.659200
vn -0.138157 -0.065007 0.988275
vn -0.138157 -0.065007 0.988275
vn -0.138157 -0.065007 0.988275
vn -0.138157 -0.065007 0.988275
vn -0.778610 -0.161674 -0.606324
vn -0.778610 -0.161674 -0.606324
vn -0.778610 -0.161674 -0.606324
vn -0.778610 -0.161674 -0.606324
vn 0.927621 0.370846 0.044632
vn 0.927621 0.370846 0.044632
vn 0.927621 0.370846 0.044632
vn 0.927621 0.370846 0.044632
vn 0.426331 -0.894291 -0.135962
vn 0.426331 -0.894291 -0.135962
vn 0.426331 -0.894291 -0.135962
vn 0.426331 -0.894291 -0.135962
vn -0.613057 -0.161674 0.773319
vn -0.613057 -0.161674 0.773319
vn -0.613057 -0.161674 0.773319
vn -0.613057 -0.161674 0.773319
vn 0.316481 0.020748 0.948372
vn 0.316481 0.020748 0.948372
vn 0.316481 0.020748 0.948372
vn 0.316481 0.020748 0.948372
vn -0.030550 0.303654 0.952293
vn -0.030550 0.303654 0.952293
vn -0.030550 0.303654 0.952293
vn -0.030550 0.303654 0.952293
vn 0.621519 -0.199632 0.757536
vn 0.621519 -0.199632 0.757536
vn 0.621519 -0.199632 0.757537
vn 0.621519 -0.199632 0.757536
vn 0.936106 0.087686 -0.340611
vn 0.936106 0.087686 -0.340611
vn 0.936106 0.087686 -0.340611
vn 0.936106 0.087686 -0.340611
vn -0.773132 0.103076 0.625813
vn -0.773132 0.103076 0.625813
vn -0.773132 0.103076 0.625813
vn -0.773132 0.103076 0.625813
vn 0.348721 0.087687 0.933116
vn 0.348721 0.087687 0.933116
vn 0.348721 0.087687 0.933116
vn 0.348721 0.087687 0.933116
vn 0.934586 0.103270 -0.340419
vn 0.934586 0.103270 -0.340419
vn 0.934586 0.103270 -0.340419
vn 0.934586 0.103270 -0.340419
vn 0.987039 -0.065007 0.146727
vn 0.987039 -0.065007 0.146727
vn 0.987039 -0.065007 0.146727
vn 0.987039 -0.065007 0.146727
vn -0.901056 0.087687 -0.424747
vn -0.901056 0.087687 -0.424747
vn -0.901056 0.087687 -0.424747
vn -0.901056 0.087687 -0.424747
vn 0.778913 -0.492391 -0.388389
vn 0.778913 -0.492391 -0.388389
vn 0.778913 -0.492391 -0.388389
vn 0.778913 -0.492391 -0.388389
s off
g pPlane18
usemtl pPlane18SG
f 1/1/1 2/2/2 4/4/3 3/3/4
f 5/5/5 6/6/6 8/7/7 7/8/8
f 9/9/9 10/10/10 12/11/11 11/12/12
f 13/13/13 14/14/14 16/15/15 15/16/16
f 17/17/17 18/18/18 20/19/19 19/20/20
s 1
usemtl pPlane18SG1
f 65/81/21 66/82/22 154/83/23
f 154/83/23 66/82/22 155/84/24
f 63/85/25 124/86/26 164/87/27
f 86/88/28 26/89/29 88/90/30
f 88/90/30 26/89/29 25/91/31
f 126/92/32 22/93/33 21/94/34
f 170/95/35 25/91/31 146/96/36
f 146/96/36 25/91/31 188/97/37
f 100/98/38 69/99/39 90/100/40
f 90/100/40 69/99/39 33/101/41
f 67/102/42 36/103/43 119/104/44
f 119/104/44 36/103/43 109/105/45
f 23/106/46 167/107/47 64/108/48
f 31/109/49 106/110/50 32/111/51
f 65/81/21 29/112/52 185/113/53
f 102/114/54 75/115/55 91/116/56
f 91/116/56 75/115/55 44/117/57
f 101/118/58 73/119/59 92/120/60
f 92/120/60 73/119/59 39/121/61
f 118/122/62 70/123/63 108/124/64
f 108/124/64 70/123/63 37/125/65
f 140/126/66 72/127/67 129/128/68
f 129/128/68 72/127/67 35/129/69
f 71/130/70 34/131/71 139/132/72
f 139/132/72 34/131/71 128/133/73
f 68/134/74 38/135/75 99/136/76
f 99/136/76 38/135/75 89/137/77
f 144/138/78 81/139/79 133/140/80
f 133/140/80 81/139/79 47/141/81
f 79/142/82 48/143/83 123/144/84
f 123/144/84 48/143/83 113/145/85
f 74/146/86 43/147/87 121/148/88
f 121/148/88 43/147/87 110/149/89
f 120/150/90 78/151/91 111/152/92
f 111/152/92 78/151/91 42/153/93
f 76/154/94 41/155/95 142/156/96
f 142/156/96 41/155/95 131/157/97
f 141/158/98 77/159/99 130/160/100
f 130/160/100 77/159/99 40/161/101
f 117/162/102 59/163/103 114/164/104
f 114/164/104 59/163/103 55/165/105
f 98/166/106 57/167/107 95/168/108
f 95/168/108 57/167/107 56/169/109
f 83/170/110 46/171/111 143/172/112
f 143/172/112 46/171/111 132/173/113
f 104/174/114 82/175/115 316/176/116
f 316/176/116 82/175/115 311/177/117
f 103/178/118 80/179/119 93/180/120
f 93/180/120 80/179/119 50/181/121
f 324/182/122 49/183/123 112/184/124
f 56/169/109 136/185/125 209/186/126
f 209/186/126 136/185/125 213/187/127
f 230/188/128 231/189/129 225/190/130
f 225/190/130 231/189/129 235/191/131
f 61/192/132 54/193/133 116/194/134
f 116/194/134 54/193/133 115/195/135
f 377/196/136 53/197/137 135/198/138
f 137/199/139 60/200/140 134/201/141
f 134/201/141 60/200/140 52/202/142
f 97/203/143 62/204/144 96/205/145
f 96/205/145 62/204/144 51/206/146
f 94/207/147 45/208/148 97/203/143
f 97/203/143 45/208/148 62/204/144
f 46/171/111 60/200/140 132/173/113
f 132/173/113 60/200/140 137/199/139
f 133/140/80 47/141/81 138/209/149
f 138/209/149 47/141/81 58/210/150
f 48/143/83 61/192/132 113/145/85
f 113/145/85 61/192/132 116/194/134
f 50/181/121 57/167/107 93/180/120
f 93/180/120 57/167/107 98/166/106
f 112/184/124 49/183/123 117/162/102
f 117/162/102 49/183/123 59/163/103
f 63/85/25 149/211/151 64/108/48
f 64/108/48 149/211/151 150/212/152
f 162/213/153 163/214/154 66/82/22
f 86/88/28 32/111/51 99/136/76
f 99/136/76 32/111/51 68/134/74
f 124/86/26 24/215/155 139/132/72
f 139/132/72 24/215/155 71/130/70
f 126/92/32 26/89/29 140/126/66
f 140/126/66 26/89/29 72/127/67
f 162/213/153 70/123/63 118/122/62
f 107/216/156 28/217/157 119/104/44
f 119/104/44 28/217/157 67/102/42
f 22/93/33 69/99/39 87/218/158
f 87/218/158 69/99/39 100/98/38
f 34/131/71 77/159/99 128/133/73
f 128/133/73 77/159/99 141/158/98
f 129/128/68 35/129/69 142/156/96
f 142/156/96 35/129/69 76/154/94
f 109/105/45 36/103/43 120/150/90
f 120/150/90 36/103/43 78/151/91
f 108/124/64 37/125/65 121/148/88
f 121/148/88 37/125/65 74/146/86
f 90/100/40 33/101/41 101/118/58
f 101/118/58 33/101/41 73/119/59
f 89/137/77 38/135/75 102/114/54
f 102/114/54 38/135/75 75/115/55
f 110/149/89 43/147/87 122/219/159
f 122/219/159 43/147/87 84/220/160
f 44/117/57 80/179/119 91/116/56
f 91/116/56 80/179/119 103/178/118
f 92/120/60 39/121/61 104/174/114
f 104/174/114 39/121/61 82/175/115
f 130/160/100 40/161/101 143/172/112
f 143/172/112 40/161/101 83/170/110
f 111/152/92 42/153/93 123/144/84
f 123/144/84 42/153/93 79/142/82
f 41/155/95 81/139/79 131/157/97
f 131/157/97 81/139/79 144/138/78
f 43/147/87 92/120/60 84/220/160
f 84/220/160 92/120/60 104/174/114
f 91/116/56 103/178/118 41/155/95
f 41/155/95 103/178/118 81/139/79
f 35/129/69 89/137/77 76/154/94
f 76/154/94 89/137/77 102/114/54
f 37/125/65 90/100/40 74/146/86
f 74/146/86 90/100/40 101/118/58
f 87/218/158 100/98/38 30/221/161
f 30/221/161 100/98/38 70/123/63
f 26/89/29 86/88/28 72/127/67
f 72/127/67 86/88/28 99/136/76
f 93/180/120 98/166/106 47/141/81
f 47/141/81 98/166/106 58/210/150
f 49/183/123 94/207/147 59/163/103
f 59/163/103 94/207/147 97/203/143
f 59/163/103 97/203/143 55/165/105
f 55/165/105 97/203/143 96/205/145
f 95/168/108 56/169/109 210/222/162
f 210/222/162 56/169/109 209/186/126
f 81/139/79 103/178/118 47/141/81
f 47/141/81 103/178/118 93/180/120
f 94/207/147 49/183/123 315/223/163
f 315/223/163 49/183/123 312/224/164
f 95/168/108 53/197/137 98/166/106
f 58/210/150 98/166/106 377/196/136
f 98/166/106 53/197/137 377/196/136
f 99/136/76 89/137/77 72/127/67
f 72/127/67 89/137/77 35/129/69
f 101/118/58 92/120/60 74/146/86
f 74/146/86 92/120/60 43/147/87
f 76/154/94 102/114/54 41/155/95
f 41/155/95 102/114/54 91/116/56
f 22/93/33 87/218/158 85/225/165
f 70/123/63 100/98/38 37/125/65
f 37/125/65 100/98/38 90/100/40
f 176/226/166 170/95/35 146/96/36
f 32/111/51 86/88/28 88/90/30
f 111/152/92 123/144/84 44/117/57
f 44/117/57 123/144/84 80/179/119
f 40/161/101 110/149/89 83/170/110
f 83/170/110 110/149/89 122/219/159
f 34/131/71 108/124/64 77/159/99
f 77/159/99 108/124/64 121/148/88
f 38/135/75 109/105/45 75/115/55
f 75/115/55 109/105/45 120/150/90
f 32/111/51 107/216/156 68/134/74
f 68/134/74 107/216/156 119/104/44
f 24/215/155 105/227/167 71/130/70
f 71/130/70 105/227/167 118/122/62
f 46/171/111 112/184/124 60/200/140
f 60/200/140 112/184/124 117/162/102
f 113/145/85 116/194/134 50/181/121
f 50/181/121 116/194/134 57/167/107
f 116/194/134 115/195/135 57/167/107
f 57/167/107 115/195/135 56/169/109
f 226/228/168 222/229/169 229/230/170
f 229/230/170 222/229/169 236/231/171
f 83/170/110 122/219/159 46/171/111
f 46/171/111 122/219/159 112/184/124
f 60/200/140 117/162/102 52/202/142
f 52/202/142 117/162/102 114/164/104
f 75/115/55 120/150/90 44/117/57
f 44/117/57 120/150/90 111/152/92
f 121/148/88 110/149/89 77/159/99
f 77/159/99 110/149/89 40/161/101
f 123/144/84 113/145/85 80/179/119
f 80/179/119 113/145/85 50/181/121
f 118/122/62 108/124/64 71/130/70
f 71/130/70 108/124/64 34/131/71
f 28/217/157 107/216/156 106/110/50
f 119/104/44 109/105/45 68/134/74
f 68/134/74 109/105/45 38/135/75
f 229/230/170 236/231/171 230/188/128
f 230/188/128 236/231/171 231/189/129
f 181/232/172 185/113/53 29/112/52
f 55/165/105 208/233/173 136/185/125
f 136/185/125 208/233/173 213/187/127
f 131/157/97 144/138/78 39/121/61
f 39/121/61 144/138/78 82/175/115
f 42/153/93 130/160/100 79/142/82
f 79/142/82 130/160/100 143/172/112
f 33/101/41 129/128/68 73/119/59
f 73/119/59 129/128/68 142/156/96
f 36/103/43 128/133/73 78/151/91
f 78/151/91 128/133/73 141/158/98
f 126/92/32 140/126/66 22/93/33
f 22/93/33 140/126/66 69/99/39
f 28/217/157 124/86/26 67/102/42
f 67/102/42 124/86/26 139/132/72
f 45/208/148 133/140/80 62/204/144
f 62/204/144 133/140/80 138/209/149
f 132/173/113 137/199/139 48/143/83
f 48/143/83 137/199/139 61/192/132
f 137/199/139 134/201/141 61/192/132
f 61/192/132 134/201/141 54/193/133
f 62/204/144 138/209/149 51/206/146
f 135/198/138 51/206/146 377/196/136
f 138/209/149 377/196/136 51/206/146
f 228/234/174 227/235/175 232/236/176
f 232/236/176 227/235/175 237/237/177
f 135/198/138 212/238/178 51/206/146
f 51/206/146 212/238/178 206/239/179
f 143/172/112 132/173/113 79/142/82
f 79/142/82 132/173/113 48/143/83
f 78/151/91 141/158/98 42/153/93
f 42/153/93 141/158/98 130/160/100
f 142/156/96 131/157/97 73/119/59
f 73/119/59 131/157/97 39/121/61
f 144/138/78 133/140/80 328/240/180
f 139/132/72 128/133/73 67/102/42
f 67/102/42 128/133/73 36/103/43
f 69/99/39 140/126/66 33/101/41
f 33/101/41 140/126/66 129/128/68
f 85/225/165 178/241/181 187/242/182
f 187/242/182 178/241/181 186/243/183
f 26/89/29 126/92/32 25/91/31
f 25/91/31 126/92/32 125/244/184
f 150/212/152 149/211/151 151/245/185
f 23/106/46 64/108/48 148/246/186
f 148/246/186 64/108/48 150/212/152
f 63/85/25 23/106/46 149/211/151
f 149/211/151 23/106/46 148/246/186
f 173/247/187 171/248/188 159/249/189
f 159/249/189 171/248/188 195/250/190
f 148/246/186 150/212/152 151/245/185
f 149/211/151 148/246/186 151/245/185
f 154/83/23 155/84/24 157/251/191
f 157/251/191 155/84/24 158/252/192
f 65/81/21 154/83/23 29/112/52
f 29/112/52 154/83/23 153/253/193
f 66/82/22 29/112/52 153/253/193 155/84/24
f 157/251/191 158/252/192 160/254/194
f 154/83/23 157/251/191 153/253/193
f 153/253/193 157/251/191 156/255/195
f 155/84/24 153/253/193 158/252/192
f 158/252/192 153/253/193 156/255/195
f 27/256/196 172/257/197 196/258/198
f 196/258/198 172/257/197 194/259/199
f 156/255/195 157/251/191 160/254/194
f 158/252/192 156/255/195 160/254/194
f 161/260/200 105/227/167 64/108/48
f 64/108/48 105/227/167 24/215/155
f 163/214/154 162/213/153 161/260/200
f 161/260/200 162/213/153 105/227/167
f 64/108/48 24/215/155 63/85/25
f 124/86/26 27/256/196 164/87/27
f 64/108/48 167/107/47 179/261/201
f 179/261/201 167/107/47 166/262/202
f 179/261/201 183/263/203 161/260/200
f 161/260/200 183/263/203 163/214/154
f 66/82/22 181/232/172 29/112/52
f 165/264/204 169/265/205 175/266/206
f 169/265/205 172/257/197 106/110/50
f 27/256/196 171/248/188 164/87/27
f 164/87/27 171/248/188 167/107/47
f 164/87/27 167/107/47 23/106/46
f 168/267/207 174/268/208 31/109/49
f 173/247/187 165/264/204 166/262/202
f 167/107/47 171/248/188 166/262/202
f 25/91/31 170/95/35 88/90/30
f 176/226/166 199/269/209 170/95/35
f 170/95/35 199/269/209 198/270/210
f 27/256/196 196/258/198 171/248/188
f 171/248/188 196/258/198 195/250/190
f 175/266/206 106/110/50 174/268/208
f 177/271/211 168/267/207 31/109/49
f 184/272/212 127/273/213 146/96/36
f 179/261/201 161/260/200 64/108/48
f 183/263/203 166/262/202 165/264/204
f 186/243/183 188/97/37 182/274/214
f 182/274/214 188/97/37 125/244/184
f 181/232/172 165/264/204 127/273/213
f 163/214/154 180/275/215 66/82/22
f 184/272/212 85/225/165 185/113/53
f 187/242/182 192/276/216 21/94/34
f 21/94/34 192/276/216 189/277/217
f 186/243/183 178/241/181 188/97/37
f 188/97/37 178/241/181 146/96/36
f 188/97/37 25/91/31 125/244/184
f 191/278/218 190/279/219 193/280/220
f 186/243/183 191/278/218 187/242/182
f 187/242/182 191/278/218 192/276/216
f 21/94/34 189/277/217 182/274/214
f 182/274/214 189/277/217 190/279/219
f 186/243/183 182/274/214 191/278/218
f 191/278/218 182/274/214 190/279/219
f 195/250/190 196/258/198 152/281/221
f 189/277/217 192/276/216 193/280/220
f 192/276/216 191/278/218 193/280/220
f 190/279/219 189/277/217 193/280/220
f 173/247/187 159/249/189 172/257/197
f 172/257/197 159/249/189 194/259/199
f 194/259/199 159/249/189 152/281/221
f 196/258/198 194/259/199 152/281/221
f 159/249/189 195/250/190 152/281/221
f 197/282/222 201/283/223 200/284/224
f 200/284/224 201/283/223 204/285/225
f 176/226/166 177/271/211 199/269/209
f 199/269/209 177/271/211 200/284/224
f 88/90/30 170/95/35 197/282/222
f 197/282/222 170/95/35 198/270/210
f 88/90/30 197/282/222 177/271/211
f 177/271/211 197/282/222 200/284/224
f 201/283/223 202/286/226 205/287/227
f 197/282/222 198/270/210 201/283/223
f 201/283/223 198/270/210 202/286/226
f 200/284/224 204/285/225 199/269/209
f 199/269/209 204/285/225 203/288/228
f 199/269/209 203/288/228 198/270/210
f 198/270/210 203/288/228 202/286/226
f 203/288/228 204/285/225 205/287/227
f 202/286/226 203/288/228 205/287/227
f 204/285/225 201/283/223 205/287/227
f 250/289/229 215/290/230 251/291/231
f 251/291/231 215/290/230 220/292/232
f 248/293/233 218/294/234 250/289/229
f 250/289/229 218/294/234 215/290/230
f 246/295/235 247/296/236 216/297/237
f 216/297/237 247/296/236 219/298/238
f 249/299/239 217/300/240 248/293/233
f 248/293/233 217/300/240 218/294/234
f 55/165/105 96/205/145 208/233/173
f 208/233/173 96/205/145 211/301/241
f 53/197/137 95/168/108 207/302/242
f 207/302/242 95/168/108 210/222/162
f 53/197/137 207/302/242 135/198/138
f 135/198/138 207/302/242 212/238/178
f 51/206/146 206/239/179 96/205/145
f 96/205/145 206/239/179 211/301/241
f 216/297/237 219/298/238 214/303/243
f 218/294/234 217/300/240 214/303/243
f 221/304/244 216/297/237 214/303/243
f 145/305/245 220/292/232 214/303/243
f 247/296/236 252/306/246 219/298/238
f 219/298/238 252/306/246 145/305/245
f 253/307/247 221/304/244 249/299/239
f 249/299/239 221/304/244 217/300/240
f 252/306/246 251/291/231 145/305/245
f 145/305/245 251/291/231 220/292/232
f 246/295/235 216/297/237 253/307/247
f 253/307/247 216/297/237 221/304/244
f 55/165/105 136/185/125 228/234/174
f 228/234/174 136/185/125 227/235/175
f 136/185/125 56/169/109 227/235/175
f 114/164/104 223/308/248 52/202/142
f 52/202/142 223/308/248 226/228/168
f 55/165/105 228/234/174 114/164/104
f 114/164/104 228/234/174 223/308/248
f 215/290/230 218/294/234 214/303/243
f 220/292/232 215/290/230 214/303/243
f 219/298/238 145/305/245 214/303/243
f 217/300/240 221/304/244 214/303/243
f 257/309/249 259/310/250 243/311/251
f 243/311/251 259/310/250 239/312/252
f 258/313/253 254/314/254 244/315/255
f 244/315/255 254/314/254 147/316/256
f 255/317/257 242/318/258 254/314/254
f 254/314/254 242/318/258 147/316/256
f 256/319/259 257/309/249 241/320/260
f 241/320/260 257/309/249 243/311/251
f 227/235/175 224/321/261 237/237/177
f 237/237/177 224/321/261 233/322/262
f 223/308/248 234/323/263 226/228/168
f 226/228/168 234/323/263 222/229/169
f 228/234/174 232/236/176 223/308/248
f 223/308/248 232/236/176 234/323/263
f 225/190/130 235/191/131 224/321/261
f 224/321/261 235/191/131 233/322/262
f 147/316/256 242/318/258 263/324/264 266/325/265
f 241/320/260 243/311/251 269/326/266 262/327/267
f 242/318/258 240/328/268 265/329/269 263/324/264
f 240/328/268 245/330/270 268/331/271 265/329/269
f 256/319/259 241/320/260 260/332/272
f 260/332/272 241/320/260 245/330/270
f 259/310/250 258/313/253 239/312/252
f 239/312/252 258/313/253 244/315/255
f 260/332/272 245/330/270 261/333/273
f 261/333/273 245/330/270 240/328/268
f 261/333/273 240/328/268 255/317/257
f 255/317/257 240/328/268 242/318/258
f 244/315/255 147/316/256 266/325/265 264/334/274
f 243/311/251 239/312/252 267/335/275 269/326/266
f 245/330/270 241/320/260 262/327/267 268/331/271
f 244/315/255 264/334/274 239/312/252
f 239/312/252 264/334/274 267/335/275
f 225/190/130 224/321/261 280/336/276
f 134/201/141 229/230/170 54/193/133
f 54/193/133 229/230/170 230/188/128
f 52/202/142 226/228/168 134/201/141
f 134/201/141 226/228/168 229/230/170
f 115/195/135 54/193/133 225/190/130
f 225/190/130 54/193/133 230/188/128
f 213/187/127 246/295/235 253/307/247
f 206/239/179 212/238/178 252/306/246
f 252/306/246 212/238/178 251/291/231
f 209/186/126 213/187/127 249/299/239
f 249/299/239 213/187/127 253/307/247
f 211/301/241 206/239/179 247/296/236
f 247/296/236 206/239/179 252/306/246
f 209/186/126 249/299/239 210/222/162
f 210/222/162 249/299/239 248/293/233
f 211/301/241 246/295/235 293/337/277
f 210/222/162 248/293/233 207/302/242
f 207/302/242 248/293/233 250/289/229
f 207/302/242 250/289/229 212/238/178
f 212/238/178 250/289/229 251/291/231
f 298/338/278 261/333/273 299/339/279
f 299/339/279 261/333/273 255/317/257
f 297/340/280 260/332/272 298/338/278
f 298/338/278 260/332/272 261/333/273
f 301/341/281 296/342/282 259/310/250
f 259/310/250 296/342/282 258/313/253
f 297/340/280 295/343/283 260/332/272
f 260/332/272 295/343/283 256/319/259
f 295/343/283 300/344/284 256/319/259
f 256/319/259 300/344/284 257/309/249
f 299/339/279 255/317/257 294/345/285
f 294/345/285 255/317/257 254/314/254
f 296/342/282 294/345/285 258/313/253
f 258/313/253 294/345/285 254/314/254
f 300/344/284 301/341/281 257/309/249
f 257/309/249 301/341/281 259/310/250
f 262/327/267 269/326/266 238/346/286
f 269/326/266 267/335/275 238/346/286
f 266/325/265 263/324/264 238/346/286
f 268/331/271 262/327/267 238/346/286
f 267/335/275 264/334/274 238/346/286
f 263/324/264 265/329/269 238/346/286
f 265/329/269 268/331/271 238/346/286
f 264/334/274 266/325/265 238/346/286
f 56/169/109 270/347/287 227/235/175
f 227/235/175 270/347/287 272/348/288
f 272/348/288 270/347/287 275/349/289
f 275/349/289 270/347/287 273/350/290
f 280/336/276 283/351/291 56/169/109
f 56/169/109 283/351/291 270/347/287
f 224/321/261 227/235/175 271/352/292
f 271/352/292 227/235/175 272/348/288
f 275/349/289 273/350/290 278/353/293
f 278/353/293 273/350/290 276/354/294
f 270/347/287 283/351/291 273/350/290
f 273/350/290 283/351/291 281/355/295
f 272/348/288 275/349/289 271/352/292
f 271/352/292 275/349/289 274/356/296
f 278/353/293 276/354/294 279/357/297
f 273/350/290 281/355/295 276/354/294
f 276/354/294 281/355/295 282/358/298
f 275/349/289 278/353/293 274/356/296
f 274/356/296 278/353/293 277/359/299
f 285/360/300 288/361/301 286/362/302
f 286/362/302 288/361/301 289/363/303
f 276/354/294 282/358/298 279/357/297
f 277/359/299 278/353/293 279/357/297
f 279/357/297 282/358/298 277/359/299
f 280/336/276 224/321/261 283/351/291
f 283/351/291 224/321/261 271/352/292
f 283/351/291 271/352/292 281/355/295
f 281/355/295 271/352/292 274/356/296
f 281/355/295 274/356/296 282/358/298
f 282/358/298 274/356/296 277/359/299
f 213/187/127 285/360/300 246/295/235
f 246/295/235 285/360/300 286/362/302
f 213/187/127 208/233/173 285/360/300
f 285/360/300 208/233/173 284/364/304
f 293/337/277 291/365/305 208/233/173
f 208/233/173 291/365/305 284/364/304
f 289/363/303 288/361/301 290/366/306
f 285/360/300 284/364/304 288/361/301
f 288/361/301 284/364/304 287/367/307
f 291/365/305 292/368/308 284/364/304
f 284/364/304 292/368/308 287/367/307
f 288/361/301 287/367/307 290/366/306
f 287/367/307 292/368/308 290/366/306
f 292/368/308 291/365/305 289/363/303
f 289/363/303 291/365/305 286/362/302
f 290/366/306 292/368/308 289/363/303
f 293/337/277 246/295/235 291/365/305
f 291/365/305 246/295/235 286/362/302
f 235/191/131 231/189/129 300/344/284
f 300/344/284 231/189/129 301/341/281
f 236/231/171 222/229/169 296/342/282
f 296/342/282 222/229/169 294/345/285
f 234/323/263 299/339/279 222/229/169
f 222/229/169 299/339/279 294/345/285
f 233/322/262 235/191/131 295/343/283
f 295/343/283 235/191/131 300/344/284
f 297/340/280 305/369/309 295/343/283
f 295/343/283 305/369/309 304/370/310
f 231/189/129 236/231/171 301/341/281
f 301/341/281 236/231/171 296/342/282
f 237/237/177 297/340/280 232/236/176
f 232/236/176 297/340/280 298/338/278
f 232/236/176 298/338/278 234/323/263
f 234/323/263 298/338/278 299/339/279
f 303/371/311 307/372/312 305/369/309
f 305/369/309 307/372/312 309/373/313
f 233/322/262 302/374/314 237/237/177
f 237/237/177 302/374/314 303/371/311
f 233/322/262 295/343/283 302/374/314
f 302/374/314 295/343/283 304/370/310
f 237/237/177 303/371/311 297/340/280
f 297/340/280 303/371/311 305/369/309
f 308/375/315 309/373/313 310/376/316
f 303/371/311 302/374/314 307/372/312
f 307/372/312 302/374/314 306/377/317
f 305/369/309 309/373/313 304/370/310
f 304/370/310 309/373/313 308/375/315
f 302/374/314 304/370/310 306/377/317
f 306/377/317 304/370/310 308/375/315
f 314/378/318 316/176/116 320/379/319
f 320/379/319 316/176/116 322/380/320
f 306/377/317 308/375/315 310/376/316
f 309/373/313 307/372/312 310/376/316
f 307/372/312 306/377/317 310/376/316
f 312/224/164 318/381/321 315/223/163
f 315/223/163 318/381/321 321/382/322
f 324/182/122 323/383/323 49/183/123
f 49/183/123 323/383/323 312/224/164
f 82/175/115 328/240/180 311/177/117
f 311/177/117 328/240/180 326/384/324
f 94/207/147 315/223/163 45/208/148
f 45/208/148 315/223/163 313/385/325
f 84/220/160 104/174/114 314/378/318
f 314/378/318 104/174/114 316/176/116
f 347/386/326 334/387/327 350/388/328
f 350/388/328 334/387/327 329/389/329
f 316/176/116 311/177/117 322/380/320
f 322/380/320 311/177/117 317/390/330
f 311/177/117 326/384/324 317/390/330
f 323/383/323 327/391/331 312/224/164
f 312/224/164 327/391/331 318/381/321
f 313/385/325 315/223/163 319/392/332
f 319/392/332 315/223/163 321/382/322
f 334/387/327 330/393/333 362/394/334
f 362/394/334 330/393/333 358/395/335
f 317/390/330 326/384/324 319/392/332
f 319/392/332 326/384/324 313/385/325
f 327/391/331 323/383/323 320/379/319
f 320/379/319 323/383/323 314/378/318
f 346/396/336 332/397/337 349/398/338
f 349/398/338 332/397/337 330/393/333
f 323/383/323 324/182/122 314/378/318
f 314/378/318 324/182/122 84/220/160
f 321/382/322 325/399/339 337/400/340
f 337/400/340 325/399/339 339/401/341
f 328/240/180 45/208/148 326/384/324
f 326/384/324 45/208/148 313/385/325
f 333/402/342 361/403/343 332/397/337
f 332/397/337 361/403/343 360/404/344
f 351/405/345 350/388/328 331/406/346
f 331/406/346 350/388/328 329/389/329
f 346/396/336 348/407/347 332/397/337
f 332/397/337 348/407/347 333/402/342
f 349/398/338 330/393/333 347/386/326
f 347/386/326 330/393/333 334/387/327
f 348/407/347 351/405/345 333/402/342
f 333/402/342 351/405/345 331/406/346
f 335/408/348 368/409/349 364/410/350
f 339/401/341 338/411/351 369/412/352
f 369/412/352 338/411/351 367/413/353
f 322/380/320 317/390/330 338/411/351
f 338/411/351 317/390/330 335/408/348
f 322/380/320 338/411/351 325/399/339
f 325/399/339 338/411/351 339/401/341
f 319/392/332 336/414/354 317/390/330
f 317/390/330 336/414/354 335/408/348
f 319/392/332 321/382/322 336/414/354
f 336/414/354 321/382/322 337/400/340
f 321/382/322 344/415/355 325/399/339
f 325/399/339 344/415/355 345/416/356
f 320/379/319 341/417/357 327/391/331
f 327/391/331 341/417/357 342/418/358
f 322/380/320 325/399/339 340/419/359
f 340/419/359 325/399/339 345/416/356
f 321/382/322 318/381/321 344/415/355
f 344/415/355 318/381/321 343/420/360
f 322/380/320 340/419/359 320/379/319
f 320/379/319 340/419/359 341/417/357
f 327/391/331 342/418/358 318/381/321
f 318/381/321 342/418/358 343/420/360
f 344/415/355 351/405/345 345/416/356
f 345/416/356 351/405/345 348/407/347
f 342/418/358 341/417/357 349/398/338 347/386/326
f 346/396/336 354/421/361 348/407/347
f 348/407/347 354/421/361 355/422/362
f 344/415/355 343/420/360 351/405/345
f 351/405/345 343/420/360 350/388/328
f 340/419/359 346/396/336 341/417/357
f 341/417/357 346/396/336 349/398/338
f 342/418/358 347/386/326 343/420/360
f 343/420/360 347/386/326 350/388/328
f 353/423/363 355/422/362 356/424/364
f 348/407/347 355/422/362 345/416/356
f 345/416/356 355/422/362 353/423/363
f 346/396/336 340/419/359 354/421/361
f 354/421/361 340/419/359 352/425/365
f 340/419/359 345/416/356 352/425/365
f 352/425/365 345/416/356 353/423/363
f 362/394/334 358/395/335 363/426/366
f 352/425/365 353/423/363 356/424/364
f 355/422/362 354/421/361 356/424/364
f 354/421/361 352/425/365 356/424/364
f 358/395/335 360/404/344 363/426/366
f 331/406/346 357/427/367 333/402/342
f 333/402/342 357/427/367 361/403/343
f 329/389/329 334/387/327 359/428/368
f 359/428/368 334/387/327 362/394/334
f 331/406/346 329/389/329 357/427/367
f 357/427/367 329/389/329 359/428/368
f 332/397/337 360/404/344 330/393/333
f 330/393/333 360/404/344 358/395/335
f 360/404/344 361/403/343 363/426/366
f 361/403/343 357/427/367 363/426/366
f 357/427/367 359/428/368 363/426/366
f 359/428/368 362/394/334 363/426/366
f 365/429/369 366/430/370 371/431/371
f 371/431/371 366/430/370 372/432/372
f 368/409/349 365/429/369 374/433/373
f 374/433/373 365/429/369 371/431/371
f 338/411/351 335/408/348 367/413/353
f 367/413/353 335/408/348 364/410/350
f 335/408/348 336/414/354 368/409/349
f 368/409/349 336/414/354 365/429/369
f 337/400/340 366/430/370 336/414/354
f 336/414/354 366/430/370 365/429/369
f 339/401/341 369/412/352 337/400/340
f 337/400/340 369/412/352 366/430/370
f 373/434/374 370/435/375 376/436/376
f 370/435/375 374/433/373 376/436/376
f 369/412/352 375/437/377 366/430/370
f 366/430/370 375/437/377 372/432/372
f 367/413/353 373/434/374 369/412/352
f 369/412/352 373/434/374 375/437/377
f 364/410/350 368/409/349 370/435/375
f 370/435/375 368/409/349 374/433/373
f 364/410/350 370/435/375 367/413/353
f 367/413/353 370/435/375 373/434/374
f 374/433/373 371/431/371 376/436/376
f 371/431/371 372/432/372 376/436/376
f 372/432/372 375/437/377 376/436/376
f 375/437/377 373/434/374 376/436/376
f 164/87/27 23/106/46 63/85/25
f 63/85/25 24/215/155 124/86/26
f 182/274/214 125/244/184 21/94/34
f 125/244/184 126/92/32 21/94/34
f 174/268/208 106/110/50 31/109/49
f 106/110/50 107/216/156 32/111/51
f 185/113/53 85/225/165 65/81/21
f 85/225/165 87/218/158 65/81/21
f 87/218/158 30/221/161 65/81/21
f 112/184/124 122/219/159 324/182/122
f 122/219/159 84/220/160 324/182/122
f 66/82/22 65/81/21 162/213/153
f 65/81/21 30/221/161 162/213/153
f 118/122/62 105/227/167 162/213/153
f 162/213/153 30/221/161 70/123/63
f 187/242/182 21/94/34 85/225/165
f 21/94/34 22/93/33 85/225/165
f 146/96/36 127/273/213 176/226/166
f 127/273/213 168/267/207 176/226/166
f 177/271/211 31/109/49 88/90/30
f 31/109/49 32/111/51 88/90/30
f 172/257/197 27/256/196 106/110/50
f 27/256/196 28/217/157 106/110/50
f 181/232/172 184/272/212 185/113/53
f 328/240/180 82/175/115 144/138/78
f 133/140/80 45/208/148 328/240/180
f 124/86/26 28/217/157 27/256/196
f 66/82/22 180/275/215 181/232/172
f 168/267/207 127/273/213 175/266/206
f 127/273/213 165/264/204 175/266/206
f 169/265/205 173/247/187 172/257/197
f 168/267/207 175/266/206 174/268/208
f 166/262/202 171/248/188 173/247/187
f 173/247/187 169/265/205 165/264/204
f 175/266/206 169/265/205 106/110/50
f 177/271/211 176/226/166 168/267/207
f 146/96/36 178/241/181 184/272/212
f 184/272/212 181/232/172 127/273/213
f 165/264/204 180/275/215 183/263/203
f 183/263/203 179/261/201 166/262/202
f 181/232/172 180/275/215 165/264/204
f 163/214/154 183/263/203 180/275/215
f 184/272/212 178/241/181 85/225/165
f 280/336/276 56/169/109 115/195/135
f 115/195/135 225/190/130 280/336/276
f 293/337/277 208/233/173 211/301/241
f 211/301/241 247/296/236 246/295/235
f 138/209/149 58/210/150 377/196/136
s off
usemtl pPlane18SG
f 378/21/378 379/22/379 381/23/380 380/24/381
f 382/25/382 383/26/383 385/27/384 384/28/385
f 386/29/386 387/30/387 389/31/388 388/32/389
f 390/33/390 391/34/391 393/35/392 392/36/393
f 394/37/394 395/38/395 397/39/396 396/40/397
f 398/41/398 399/42/399 401/43/400 400/44/401
f 402/45/402 403/46/403 405/47/404 404/48/405
f 406/49/406 407/50/407 409/51/408 408/52/409
f 410/53/410 411/54/411 413/55/412 412/56/413
f 414/57/414 415/58/415 417/59/416 416/60/417
f 418/61/418 419/62/419 421/63/420 420/64/421
f 422/65/422 423/66/423 425/67/424 424/68/425
f 426/69/426 427/70/427 429/71/428 428/72/429
f 430/73/430 431/74/431 433/75/432 432/76/433
f 434/77/434 435/78/435 437/79/436 436/80/437
