# This file uses centimeters as units for non-parametric coordinates.

mtllib huge tree.mtl
g default
v -2.920780 2.977842 0.000000
v 2.655354 9.251418 0.000000
v -9.194356 8.553972 0.000000
v -3.618225 14.827552 0.000000
v 0.500000 -0.051874 -0.866025
v -0.500000 -0.051874 -0.866026
v -1.000000 -0.051874 -0.000000
v -0.500000 -0.051874 0.866025
v 0.500000 -0.051874 0.866025
v 1.000000 -0.051874 0.000000
v 0.337742 5.167164 -0.584985
v -0.337741 5.167164 -0.584985
v -0.675483 5.167164 -0.000000
v -0.337741 5.167164 0.584985
v 0.337741 5.167164 0.584985
v 0.675483 5.167164 -0.000000
v 0.500000 -0.051874 0.000000
v -0.500000 -0.051874 -0.000000
v 0.468220 9.868883 0.000000
v 0.234110 9.868883 0.000001
v 0.234110 9.868884 0.405489
v -0.234110 9.868883 0.000001
v -0.468220 9.868884 0.000000
v -0.234110 9.868884 0.405493
v 0.234110 9.868883 -0.405487
v -0.234110 9.868884 -0.405491
v -1.937387 8.761322 1.842292
v 1.914154 1.788179 -0.801934
v 3.291436 13.408335 -2.796206
v 7.142979 6.435193 -5.440435
v -1.154659 4.211811 2.757590
v 1.029976 10.485387 -2.372775
v -3.612540 9.787941 8.529641
v -1.427906 16.061522 3.399279
v -2.807527 9.886522 2.236056
v 2.451407 8.974169 -1.707804
v -2.326314 16.447294 1.359996
v 2.932621 15.534945 -2.583865
v -2.135069 9.990701 -2.573020
v 1.485976 8.881214 2.876740
v -1.182848 16.521429 -1.876164
v 2.438199 15.411948 3.573596
v 0.066150 13.323483 1.679486
v -0.034425 5.238508 -0.573085
v -3.602254 15.391987 -5.581029
v -3.702831 7.307012 -7.833604
v -1.129206 8.092871 -5.587435
v 0.796177 6.446159 4.540981
v -0.128447 19.934441 -5.665207
v 1.796937 18.287737 6.042003
v 0.225448 13.361216 -1.329422
v 0.077222 5.221021 0.711726
v 3.495019 15.185366 6.182792
v 3.346795 7.045172 8.223945
v 1.060856 4.265657 -2.712130
v -0.722800 10.433209 2.694430
v 3.270333 9.955360 -8.473766
v 1.486678 16.122919 -3.067208
v -4.919242 9.749891 2.027575
v 4.681229 8.713644 -1.942402
v -5.437973 21.619482 2.299778
v 5.711380 20.647446 -1.969243
v 2.126878 9.886522 2.953999
v -1.186796 8.974169 -2.723147
v 1.311892 16.447294 2.375340
v -2.001782 15.534945 -3.301806
v 1.579820 7.925802 5.716199
v -0.953647 6.574286 -4.321656
v 0.775362 19.774530 6.153028
v -1.849314 18.464554 -5.460436
v 5.043590 10.071611 3.041916
v -3.686153 8.362282 -2.423735
v 4.903516 21.954079 2.908768
v -4.969778 20.208752 -3.644808
v -4.994691 7.636237 1.698298
v 5.112091 8.290912 -0.837040
v -8.116624 18.869282 -0.604429
v 3.515529 19.911045 -3.266242
v 2.276433 13.637705 0.745333
v -0.998421 5.944930 0.005357
v -5.282716 16.993389 -0.686320
v -8.557575 9.300615 -1.426297
v -2.030624 13.687016 -0.516576
v 1.083405 5.926360 0.208725
v 5.480458 16.883499 1.437164
v 8.594493 9.122845 2.162467
v -1.507043 2.504849 1.056260
v 0.746040 5.549706 -0.443066
v -4.041933 5.211203 2.743116
v -1.788851 8.256061 1.243791
vt 1.000000 1.000000
vt 0.000000 1.000000
vt 1.000000 0.000000
vt 0.000000 0.000000
vt 0.440897 0.816334
vt 0.454083 0.818466
vt 0.434892 0.937139
vt 0.421706 0.935007
vt 0.467268 0.820598
vt 0.448078 0.939272
vt 0.480454 0.822731
vt 0.461264 0.941404
vt 0.493640 0.824863
vt 0.474450 0.943536
vt 0.506826 0.826995
vt 0.487636 0.945668
vt 0.520012 0.829128
vt 0.500822 0.947801
vt 0.487636 0.945668
vt 0.448078 0.939272
vt 0.474450 0.943536
vt 0.467268 0.820598
vt 0.506826 0.826995
vt 0.448078 0.939272
vt 0.448078 0.939272
vt 0.461264 0.941404
vt 0.421706 0.935007
vt 0.434892 0.937139
vt 1.000000 1.000000
vt 0.000000 1.000000
vt 0.000000 0.000000
vt 1.000000 0.000000
vt 1.000000 1.000000
vt 0.000000 1.000000
vt 0.000000 0.000000
vt 1.000000 0.000000
vt 1.000000 1.000000
vt 0.000000 1.000000
vt 0.000000 0.000000
vt 1.000000 0.000000
vt 1.000000 1.000000
vt 0.000000 1.000000
vt 0.000000 0.000000
vt 1.000000 0.000000
vt 1.000000 1.000000
vt 0.000000 1.000000
vt 0.000000 0.000000
vt 1.000000 0.000000
vt 1.000000 1.000000
vt 0.000000 1.000000
vt 0.000000 0.000000
vt 1.000000 0.000000
vt 1.000000 1.000000
vt 0.000000 1.000000
vt 0.000000 0.000000
vt 1.000000 0.000000
vt 1.000000 1.000000
vt 0.000000 1.000000
vt 0.000000 0.000000
vt 1.000000 0.000000
vt 1.000000 1.000000
vt 0.000000 1.000000
vt 0.000000 0.000000
vt 1.000000 0.000000
vt 1.000000 1.000000
vt 0.000000 1.000000
vt 0.000000 0.000000
vt 1.000000 0.000000
vt 1.000000 1.000000
vt 0.000000 1.000000
vt 0.000000 0.000000
vt 1.000000 0.000000
vt 1.000000 1.000000
vt 0.000000 1.000000
vt 0.000000 0.000000
vt 1.000000 0.000000
vt 1.000000 1.000000
vt 0.000000 1.000000
vt 0.000000 0.000000
vt 1.000000 0.000000
vt 1.000000 1.000000
vt 0.000000 1.000000
vt 0.000000 0.000000
vt 1.000000 0.000000
vt 1.000000 1.000000
vt 0.000000 1.000000
vt 0.000000 0.000000
vt 1.000000 0.000000
vt 1.000000 1.000000
vt 0.000000 1.000000
vt 0.000000 0.000000
vt 1.000000 0.000000
vn 0.000000 0.000000 1.000000
vn 0.000000 0.000000 1.000000
vn 0.000000 0.000000 1.000000
vn 0.000000 0.000000 1.000000
vn 0.498973 -0.064074 -0.864246
vn -0.498972 -0.064074 -0.864246
vn -0.499233 0.055347 -0.864698
vn 0.499234 0.055347 -0.864698
vn -0.999729 0.023285 -0.000000
vn -0.998467 0.055346 -0.000000
vn -0.498973 -0.064074 0.864246
vn -0.499234 0.055347 0.864698
vn 0.498973 -0.064074 0.864246
vn 0.499234 0.055347 0.864698
vn 0.999729 0.023285 0.000000
vn 0.998467 0.055347 0.000000
vn 0.998352 0.057389 0.000001
vn 0.000000 1.000000 -0.000001
vn 0.498091 0.087304 0.862718
vn 0.000000 -1.000000 -0.000000
vn 0.000000 -1.000000 -0.000000
vn 0.000001 1.000000 -0.000000
vn -0.998352 0.057389 -0.000000
vn -0.498090 0.087303 0.862719
vn 0.498091 0.087304 -0.862719
vn -0.498090 0.087304 -0.862719
vn 0.633528 0.057333 0.771593
vn 0.633528 0.057333 0.771593
vn 0.633528 0.057333 0.771593
vn 0.633528 0.057333 0.771593
vn 0.920058 0.000000 0.391783
vn 0.920058 0.000000 0.391783
vn 0.920058 0.000000 0.391783
vn 0.920058 0.000000 0.391783
vn 0.605639 0.061515 0.793358
vn 0.605639 0.061515 0.793358
vn 0.605639 0.061515 0.793358
vn 0.605639 0.061515 0.793358
vn -0.825653 0.060533 0.560921
vn -0.825653 0.060533 0.560921
vn -0.825653 0.060533 0.560921
vn -0.825653 0.060533 0.560921
vn 0.899356 0.106927 -0.423940
vn 0.899356 0.106927 -0.423940
vn 0.899356 0.106927 -0.423940
vn 0.899356 0.106927 -0.423940
vn -0.980352 0.071811 0.183719
vn -0.980352 0.071811 0.183719
vn -0.980352 0.071811 0.183719
vn -0.980352 0.071811 0.183719
vn -0.920842 0.110533 0.373942
vn -0.920842 0.110533 0.373942
vn -0.920842 0.110533 0.373942
vn -0.920842 0.110533 0.373941
vn -0.941036 0.023689 -0.337476
vn -0.941036 0.023689 -0.337476
vn -0.941036 0.023689 -0.337476
vn -0.941036 0.023689 -0.337476
vn 0.367518 -0.017481 0.929852
vn 0.367518 -0.017481 0.929852
vn 0.367518 -0.017481 0.929852
vn 0.367518 -0.017481 0.929852
vn 0.857675 0.061515 -0.510499
vn 0.857675 0.061515 -0.510499
vn 0.857675 0.061515 -0.510499
vn 0.857675 0.061515 -0.510499
vn 0.969127 0.062353 -0.238547
vn 0.969127 0.062353 -0.238547
vn 0.969127 0.062353 -0.238547
vn 0.969127 0.062353 -0.238547
vn 0.544602 -0.015182 -0.838557
vn 0.544602 -0.015182 -0.838557
vn 0.544602 -0.015182 -0.838557
vn 0.544602 -0.015182 -0.838557
vn 0.208055 0.239328 0.948386
vn 0.208055 0.239328 0.948386
vn 0.208055 0.239328 0.948386
vn 0.208055 0.239328 0.948386
vn 0.191573 0.012848 -0.981394
vn 0.191573 0.012848 -0.981394
vn 0.191573 0.012848 -0.981394
vn 0.191573 0.012848 -0.981394
vn -0.248126 -0.009030 0.968686
vn -0.248126 -0.009030 0.968686
vn -0.248126 -0.009030 0.968686
vn -0.248126 -0.009030 0.968686
vn 0.554002 0.000000 0.832515
vn 0.554002 0.000000 0.832515
vn 0.554002 0.000000 0.832515
vn 0.554002 0.000000 0.832515
s off
g pPlane69
usemtl lambert5SG
f 1/1/1 2/2/2 4/4/3 3/3/4
s 1
f 5/5/5 6/6/6 12/7/7 11/8/8
f 6/6/6 7/9/9 13/10/10 12/7/7
f 7/9/9 8/11/11 14/12/12 13/10/10
f 8/11/11 9/13/13 15/14/14 14/12/12
f 9/13/13 10/15/15 16/16/16 15/14/14
f 10/15/15 5/17/5 11/18/8 16/16/16
f 19/19/17 20/20/18 21/21/19
f 6/6/6 18/22/20 7/9/9
f 6/6/6 5/17/5 17/23/21 18/22/20
f 22/24/22 23/25/23 24/26/24
f 10/15/15 17/23/21 5/17/5
f 20/20/18 22/24/22 24/26/24 21/21/19
f 9/13/13 17/23/21 10/15/15
f 18/22/20 17/23/21 9/13/13 8/11/11
f 7/9/9 18/22/20 8/11/11
f 25/27/25 20/20/18 19/19/17
f 26/28/26 22/24/22 20/20/18 25/27/25
f 26/28/26 23/25/23 22/24/22
f 15/14/14 16/16/16 19/19/17 21/21/19
f 13/10/10 14/12/12 24/26/24 23/25/23
f 14/12/12 15/14/14 21/21/19 24/26/24
f 16/16/16 11/8/8 25/27/25 19/19/17
f 11/8/8 12/7/7 26/28/26 25/27/25
f 12/7/7 13/10/10 23/25/23 26/28/26
s off
f 27/29/27 28/30/28 30/31/29 29/32/30
f 31/33/31 32/34/32 34/35/33 33/36/34
f 35/37/35 36/38/36 38/39/37 37/40/38
f 39/41/39 40/42/40 42/43/41 41/44/42
f 43/45/43 44/46/44 46/47/45 45/48/46
f 47/49/47 48/50/48 50/51/49 49/52/50
f 51/53/51 52/54/52 54/55/53 53/56/54
f 55/57/55 56/58/56 58/59/57 57/60/58
f 59/61/59 60/62/60 62/63/61 61/64/62
f 63/65/63 64/66/64 66/67/65 65/68/66
f 67/69/67 68/70/68 70/71/69 69/72/70
f 71/73/71 72/74/72 74/75/73 73/76/74
f 75/77/75 76/78/76 78/79/77 77/80/78
f 79/81/79 80/82/80 82/83/81 81/84/82
f 83/85/83 84/86/84 86/87/85 85/88/86
f 87/89/87 88/90/88 90/91/89 89/92/90
